<mxfile host="Electron" agent="Mozilla/5.0 (Macintosh; Intel Mac OS X 10_15_7) AppleWebKit/537.36 (KHTML, like Gecko) draw.io/28.0.6 Chrome/138.0.7204.100 Electron/37.2.3 Safari/537.36" version="28.0.6">
  <diagram name="main" id="0JK8sxpWw-lbqF8he7Y7">
    <mxGraphModel dx="1092" dy="599" grid="1" gridSize="10" guides="1" tooltips="1" connect="1" arrows="1" fold="1" page="1" pageScale="1" pageWidth="1100" pageHeight="850" math="0" shadow="0">
      <root>
        <mxCell id="0" />
        <mxCell id="1" parent="0" />
        <mxCell id="gKQagin_m7EUY_KrtwRW-1" value="Hello" style="rounded=1;whiteSpace=wrap;html=1;container=1;recursiveResize=0;verticalAlign=top;arcSize=6;fontStyle=1;autosize=0;points=[];absoluteArcSize=1;shadow=1;strokeColor=#6c8ebf;fillColor=#dae8fc;fontFamily=Helvetica;fontSize=11;gradientColor=#0050EF;fontColor=default;" vertex="1" parent="1">
          <mxGeometry x="240" y="120" width="138" height="100" as="geometry">
            <mxRectangle x="-98" y="-1230" width="99" height="26" as="alternateBounds" />
          </mxGeometry>
        </mxCell>
        <mxCell id="gKQagin_m7EUY_KrtwRW-2" value="go" style="rounded=1;whiteSpace=wrap;html=1;sketch=0;points=[[0,0.5,0,0,0],[1,0.5,0,0,0]];arcSize=50;fontFamily=Helvetica;fontSize=11;fontColor=default;" vertex="1" parent="gKQagin_m7EUY_KrtwRW-1">
          <mxGeometry x="-16.75" y="27.5" width="36.75" height="25" as="geometry" />
        </mxCell>
        <mxCell id="gKQagin_m7EUY_KrtwRW-3" value="" style="rounded=1;whiteSpace=wrap;html=1;sketch=0;points=[[0,0.5,0,0,0],[1,0.5,0,0,0]];fillColor=#1ba1e2;fontColor=#ffffff;strokeColor=#006EAF;arcSize=50;fontFamily=Helvetica;fontSize=11;" vertex="1" parent="gKQagin_m7EUY_KrtwRW-1">
          <mxGeometry x="120" y="27.5" width="36" height="25" as="geometry" />
        </mxCell>
        <mxCell id="gKQagin_m7EUY_KrtwRW-4" value="✗" style="rounded=1;whiteSpace=wrap;html=1;sketch=0;points=[[0,0.5,0,0,0],[1,0.5,0,0,0]];fillColor=#1ba1e2;fontColor=#ffffff;strokeColor=#006EAF;arcSize=50;fontFamily=Helvetica;fontSize=11;textOpacity=30;" vertex="1" parent="gKQagin_m7EUY_KrtwRW-1">
          <mxGeometry x="120" y="60" width="36" height="25" as="geometry" />
        </mxCell>
        <mxCell id="gKQagin_m7EUY_KrtwRW-5" value="World" style="rounded=1;whiteSpace=wrap;html=1;container=1;recursiveResize=0;verticalAlign=top;arcSize=6;fontStyle=1;autosize=0;points=[];absoluteArcSize=1;shadow=1;strokeColor=#6c8ebf;fillColor=#dae8fc;fontFamily=Helvetica;fontSize=11;gradientColor=#0050EF;fontColor=default;" vertex="1" parent="1">
          <mxGeometry x="500" y="120" width="138" height="100" as="geometry">
            <mxRectangle x="-98" y="-1230" width="99" height="26" as="alternateBounds" />
          </mxGeometry>
        </mxCell>
        <mxCell id="gKQagin_m7EUY_KrtwRW-6" value="go" style="rounded=1;whiteSpace=wrap;html=1;sketch=0;points=[[0,0.5,0,0,0],[1,0.5,0,0,0]];arcSize=50;fontFamily=Helvetica;fontSize=11;fontColor=default;" vertex="1" parent="gKQagin_m7EUY_KrtwRW-5">
          <mxGeometry x="-16.75" y="27.5" width="36.75" height="25" as="geometry" />
        </mxCell>
        <mxCell id="gKQagin_m7EUY_KrtwRW-7" value="" style="rounded=1;whiteSpace=wrap;html=1;sketch=0;points=[[0,0.5,0,0,0],[1,0.5,0,0,0]];fillColor=#1ba1e2;fontColor=#ffffff;strokeColor=#006EAF;arcSize=50;fontFamily=Helvetica;fontSize=11;" vertex="1" parent="gKQagin_m7EUY_KrtwRW-5">
          <mxGeometry x="120" y="27.5" width="36" height="25" as="geometry" />
        </mxCell>
        <mxCell id="gKQagin_m7EUY_KrtwRW-8" value="✗" style="rounded=1;whiteSpace=wrap;html=1;sketch=0;points=[[0,0.5,0,0,0],[1,0.5,0,0,0]];fillColor=#1ba1e2;fontColor=#ffffff;strokeColor=#006EAF;arcSize=50;fontFamily=Helvetica;fontSize=11;textOpacity=30;" vertex="1" parent="gKQagin_m7EUY_KrtwRW-5">
          <mxGeometry x="120" y="60" width="36" height="25" as="geometry" />
        </mxCell>
        <mxCell id="gKQagin_m7EUY_KrtwRW-9" value="" style="rhombus;whiteSpace=wrap;html=1;rounded=1;fontStyle=1;glass=0;sketch=0;fontSize=12;points=[[0,0.5,0,0,0],[0.5,0,0,0,0],[0.5,1,0,0,0],[1,0.5,0,0,0]];shadow=1;fontFamily=Helvetica;fontColor=default;" vertex="1" parent="1">
          <mxGeometry x="120" y="140" width="40" height="40" as="geometry" />
        </mxCell>
        <mxCell id="gKQagin_m7EUY_KrtwRW-10" value="" style="rhombus;whiteSpace=wrap;html=1;rounded=1;fontStyle=1;glass=0;sketch=0;fontSize=12;points=[[0,0.5,0,0,0],[0.5,0,0,0,0],[0.5,1,0,0,0],[1,0.5,0,0,0]];shadow=1;fillColor=#0050ef;fontColor=#ffffff;strokeColor=#001DBC;fontFamily=Helvetica;labelBackgroundColor=none;" vertex="1" parent="1">
          <mxGeometry x="760" y="60" width="40" height="40" as="geometry" />
        </mxCell>
        <mxCell id="gKQagin_m7EUY_KrtwRW-11" value="✗" style="rhombus;whiteSpace=wrap;html=1;rounded=1;fillColor=#0050ef;fontColor=#ffffff;strokeColor=#001DBC;fontStyle=1;glass=0;sketch=0;fontSize=12;points=[[0,0.5,0,0,0],[0.5,0,0,0,0],[0.5,1,0,0,0],[1,0.5,0,0,0]];shadow=1;opacity=30;textOpacity=30;labelBackgroundColor=none;" vertex="1" parent="1">
          <mxGeometry x="760" y="240" width="40" height="40" as="geometry" />
        </mxCell>
        <mxCell id="gKQagin_m7EUY_KrtwRW-12" style="edgeStyle=orthogonalEdgeStyle;rounded=1;orthogonalLoop=1;jettySize=auto;html=1;exitX=1;exitY=0.5;exitDx=0;exitDy=0;exitPerimeter=0;entryX=0;entryY=0.5;entryDx=0;entryDy=0;entryPerimeter=0;strokeWidth=2;curved=0;" edge="1" parent="1" source="gKQagin_m7EUY_KrtwRW-9" target="gKQagin_m7EUY_KrtwRW-2">
          <mxGeometry relative="1" as="geometry" />
        </mxCell>
        <mxCell id="gKQagin_m7EUY_KrtwRW-13" style="edgeStyle=orthogonalEdgeStyle;shape=connector;curved=0;rounded=1;orthogonalLoop=1;jettySize=auto;html=1;exitX=1;exitY=0.5;exitDx=0;exitDy=0;exitPerimeter=0;entryX=0;entryY=0.5;entryDx=0;entryDy=0;entryPerimeter=0;strokeColor=default;strokeWidth=2;align=center;verticalAlign=middle;fontFamily=Helvetica;fontSize=11;fontColor=default;labelBackgroundColor=default;endArrow=classic;" edge="1" parent="1" source="gKQagin_m7EUY_KrtwRW-3" target="gKQagin_m7EUY_KrtwRW-6">
          <mxGeometry relative="1" as="geometry" />
        </mxCell>
        <mxCell id="gKQagin_m7EUY_KrtwRW-14" style="edgeStyle=orthogonalEdgeStyle;shape=connector;curved=0;rounded=1;orthogonalLoop=1;jettySize=auto;html=1;exitX=1;exitY=0.5;exitDx=0;exitDy=0;exitPerimeter=0;entryX=0;entryY=0.5;entryDx=0;entryDy=0;entryPerimeter=0;strokeColor=default;strokeWidth=2;align=center;verticalAlign=middle;fontFamily=Helvetica;fontSize=11;fontColor=default;labelBackgroundColor=default;endArrow=classic;" edge="1" parent="1" source="gKQagin_m7EUY_KrtwRW-3" target="gKQagin_m7EUY_KrtwRW-10">
          <mxGeometry relative="1" as="geometry">
            <Array as="points">
              <mxPoint x="440" y="160" />
              <mxPoint x="440" y="80" />
              <mxPoint x="760" y="80" />
            </Array>
          </mxGeometry>
        </mxCell>
        <mxCell id="gKQagin_m7EUY_KrtwRW-15" style="edgeStyle=orthogonalEdgeStyle;shape=connector;curved=0;rounded=1;orthogonalLoop=1;jettySize=auto;html=1;exitX=1;exitY=0.5;exitDx=0;exitDy=0;exitPerimeter=0;entryX=0;entryY=0.5;entryDx=0;entryDy=0;entryPerimeter=0;strokeColor=default;strokeWidth=2;align=center;verticalAlign=middle;fontFamily=Helvetica;fontSize=11;fontColor=default;labelBackgroundColor=default;endArrow=classic;" edge="1" parent="1" source="gKQagin_m7EUY_KrtwRW-7" target="gKQagin_m7EUY_KrtwRW-10">
          <mxGeometry relative="1" as="geometry" />
        </mxCell>
        <mxCell id="gKQagin_m7EUY_KrtwRW-16" style="edgeStyle=orthogonalEdgeStyle;shape=connector;curved=0;rounded=1;orthogonalLoop=1;jettySize=auto;html=1;exitX=1;exitY=0.5;exitDx=0;exitDy=0;exitPerimeter=0;strokeColor=default;strokeWidth=1;align=center;verticalAlign=middle;fontFamily=Helvetica;fontSize=11;fontColor=default;labelBackgroundColor=default;endArrow=classic;dashed=1;entryX=0;entryY=0.5;entryDx=0;entryDy=0;entryPerimeter=0;" edge="1" parent="1" source="gKQagin_m7EUY_KrtwRW-8" target="gKQagin_m7EUY_KrtwRW-11">
          <mxGeometry relative="1" as="geometry">
            <mxPoint x="680" y="320" as="targetPoint" />
          </mxGeometry>
        </mxCell>
        <mxCell id="gKQagin_m7EUY_KrtwRW-18" style="edgeStyle=orthogonalEdgeStyle;shape=connector;curved=0;rounded=1;orthogonalLoop=1;jettySize=auto;html=1;exitX=1;exitY=0.5;exitDx=0;exitDy=0;exitPerimeter=0;entryX=0;entryY=0.5;entryDx=0;entryDy=0;entryPerimeter=0;dashed=1;strokeColor=default;strokeWidth=1;align=center;verticalAlign=middle;fontFamily=Helvetica;fontSize=11;fontColor=default;labelBackgroundColor=default;endArrow=classic;" edge="1" parent="1" source="gKQagin_m7EUY_KrtwRW-4" target="gKQagin_m7EUY_KrtwRW-11">
          <mxGeometry relative="1" as="geometry">
            <Array as="points">
              <mxPoint x="440" y="193" />
              <mxPoint x="440" y="260" />
            </Array>
          </mxGeometry>
        </mxCell>
      </root>
    </mxGraphModel>
  </diagram>
</mxfile>
